<svg xmlns="http://www.w3.org/2000/svg" width="90" height="90" viewBox="0 0 90 90"><g transform="translate(-930 -875)"><rect width="43" height="42" rx="5" transform="translate(930 875)" fill="#ca0813"/><rect width="43" height="42" rx="5" transform="translate(930 923)" fill="#ca0813"/><rect width="42" height="42" rx="5" transform="translate(978 923)" fill="#ca0813"/><rect width="42" height="42" rx="5" transform="translate(978 875)" fill="#ca0813"/><g transform="translate(934.027 882.82)"><path d="M21.336,19.7h-.652a1.291,1.291,0,0,0,.084-.466,1.407,1.407,0,0,0-.443-1.02c5.022-3.671,4.654-10.36,4.635-10.654h0a1.4,1.4,0,0,0-1.395-1.368h-.007a5.846,5.846,0,0,0-.938-1.867,9.112,9.112,0,0,1-.51,1.867H21.093a8.056,8.056,0,0,0,.672-2.47l.028-.284a5.842,5.842,0,0,0-1.078-.751,6.72,6.72,0,0,1-.818,3.5H18.826a5.881,5.881,0,0,0,.951-3.631l-.029-.284a5.812,5.812,0,0,0-7.362,3.915h0a1.4,1.4,0,0,0-1.395,1.368h0c-.019.293-.382,6.983,4.635,10.654a1.407,1.407,0,0,0-.443,1.02,1.291,1.291,0,0,0,.084.466H14.61a.932.932,0,0,0-.9.708l-.988,3.95H23.228l-.988-3.95A.932.932,0,0,0,21.336,19.7Zm-4.626-1.863c-3.8-2.407-4.606-6.764-4.764-8.926a1.485,1.485,0,0,0,.324.066,5.856,5.856,0,0,0,.157.617l.281.028c.15.015.3.022.46.022a5.9,5.9,0,0,0,2.615-.657h1.752l-.005,0a7.275,7.275,0,0,1-4.362,1.584c-.113,0-.222-.01-.333-.016a5.84,5.84,0,0,0,.764,1.1l.358-.04a8.838,8.838,0,0,0,5.2-2.611l.015-.017h1.259c-.194.231-.4.459-.615.676a9.856,9.856,0,0,1-5.328,2.811,5.8,5.8,0,0,0,3.021,1.151v4.212Zm1.728,0V13.622A5.829,5.829,0,0,0,23.68,8.978,1.487,1.487,0,0,0,24,8.912c-.158,2.162-.961,6.519-4.764,8.926Z" transform="translate(0)" fill="#fff"/></g><g transform="translate(986.518 879.761)"><path d="M21.7,18.2h-5c-.316-1.109-.553-2.128-.7-2.809a6,6,0,0,1,3.746-1.184.653.653,0,0,0,.534-.306.662.662,0,0,0,.034-.625,9.5,9.5,0,0,0-18.05,3.515,9.361,9.361,0,0,0,.816,4.48.65.65,0,0,0,.84.328l1.134-.475a1.734,1.734,0,0,1,1.834.344,5.385,5.385,0,0,0,3.69,1.556,3.4,3.4,0,0,0,.844-.091,4.742,4.742,0,0,0,3.24-2.209h2.209A13.84,13.84,0,0,0,18,23.088a3.514,3.514,0,0,0,2.543,1.625c.369.059.581.075.85.1l.225.016a.71.71,0,0,0,.081,0,1.017,1.017,0,0,0,1.012-1.015v-4.6A1.017,1.017,0,0,0,21.7,18.2ZM5.615,12.85a7.584,7.584,0,0,0-1.022,1.891.312.312,0,1,1-.586-.216,8.223,8.223,0,0,1,1.106-2.047.312.312,0,0,1,.5.372Zm1.01-1.117a.312.312,0,1,1-.42-.463,8.247,8.247,0,0,1,4.963-2.118.316.316,0,0,1,.333.291.313.313,0,0,1-.291.333A7.62,7.62,0,0,0,6.624,11.734Zm4.021,8.855a1.031,1.031,0,1,1,1.031-1.031A1.033,1.033,0,0,1,10.645,20.589Zm4.68-4.365c.05-.091.106-.175.162-.259.141.616.328,1.4.566,2.237H15.9a.655.655,0,0,1-.475-.2l-.328-.344A2.234,2.234,0,0,1,15.326,16.224ZM14.941,20.1a4.674,4.674,0,0,0,.237-1.5,1.275,1.275,0,0,0,.725.225h.331c.125.422.266.85.412,1.275Zm7.149,3.712a.39.39,0,0,1-.419.391l-.228-.019c-.262-.019-.453-.034-.8-.087a2.88,2.88,0,0,1-2.112-1.34c-.019-.028-.034-.059-.05-.084H22.09v1.14Zm0-1.765H18.138c-.212-.412-.409-.856-.594-1.322H22.09Zm0-1.947H17.31c-.15-.422-.294-.85-.422-1.275H21.7a.391.391,0,0,1,.391.391Z" transform="translate(0 0)" fill="#fff"/></g><g transform="translate(984.852 929.858)"><g transform="translate(15.817 5.4)"><path d="M65.689,15.722a9.151,9.151,0,0,0-6.461-8.745c-.027.227-.06.512-.094.8-.043.626-.086,1.25-.086,1.25a.31.31,0,0,1-.288.272s-.039.493-.033.99l-.01.99a.313.313,0,0,1-.273.288,8.249,8.249,0,0,0,.018.99l.055.987a.313.313,0,0,1-.253.3l.055.987c.041.493.119.981.119.981a.3.3,0,0,1-.229.319l.263,1.956a.306.306,0,0,1-.207.331l.446,1.928a.311.311,0,0,1-.2.344l.226.96.329.934a.3.3,0,0,1-.161.355l.511,1.456A9.149,9.149,0,0,0,65.689,15.722Z" transform="translate(-58.21 -6.977)" fill="#fff"/></g><g transform="translate(10.632 4.997)"><g transform="translate(0 0)"><path d="M37.781,21.025a.3.3,0,0,1,.168-.326l-.1-.3a4.343,4.343,0,0,1-.183-.667c-.111-.49-.224-.98-.224-.98l-.006-.037a.315.315,0,0,1,.2-.314s-.47-1.965-.428-1.971l0-.037a.325.325,0,0,1,.231-.3l-.264-2,0-.037a.3.3,0,0,1,.231-.286c-.047,0-.137-2.006-.137-2.006v-.036a.306.306,0,0,1,.252-.272s-.026-.5-.051-1.005l.012-1.006,0-.037a.311.311,0,0,1,.27-.257s.006-.5.012-1.007c.031-.5.062-1,.062-1l0-.036a.309.309,0,0,1,.285-.241s.018-.5.082-1c.026-.228.052-.45.074-.631-.2-.045-.4-.08-.6-.113-.055.21-.125.493-.207.858a.327.327,0,1,1-.637-.143c.075-.335.138-.592.192-.8-.263-.023-.528-.041-.8-.041a9.27,9.27,0,0,0-1.079.069c-.056.212-.132.52-.22.915a.327.327,0,0,1-.639-.143c.06-.265.111-.478.157-.665-.242.048-.478.11-.712.177-.027.233-.063.543-.1.852-.044.626-.087,1.25-.087,1.25a.309.309,0,0,1-.288.272s-.038.493-.033.99l-.009.99a.312.312,0,0,1-.273.288,8.608,8.608,0,0,0,.018.99l.055.987a.313.313,0,0,1-.252.3l.055.987c.04.493.119.981.119.981a.3.3,0,0,1-.227.319l.262,1.956a.305.305,0,0,1-.206.331l.444,1.928a.312.312,0,0,1-.2.344s.112.481.225.96l.329.934a.3.3,0,0,1-.16.355L33.978,23c.149.038.3.081.447.111-.024-.094-.052-.187-.075-.28a.326.326,0,0,1,.633-.16c.047.182.1.364.149.548a9.416,9.416,0,0,0,1.091.07c.265,0,.524-.018.783-.039-.037-.14-.077-.28-.113-.419a.327.327,0,0,1,.634-.16c.041.164.089.329.133.494.274-.044.544-.1.809-.165l-.678-1.944ZM34.022,7.131a.327.327,0,0,1,.643.119c-.073.389-.145.817-.214,1.279a.328.328,0,0,1-.323.278.285.285,0,0,1-.049,0,.327.327,0,0,1-.275-.371C33.875,7.962,33.949,7.526,34.022,7.131ZM33.63,9.739a.335.335,0,0,1,.362-.287.327.327,0,0,1,.287.362q-.073.618-.131,1.291a.327.327,0,0,1-.325.3h-.029a.327.327,0,0,1-.3-.354C33.536,10.6,33.581,10.157,33.63,9.739Zm-.223,2.625a.327.327,0,0,1,.653.035c-.021.42-.038.853-.046,1.3a.328.328,0,0,1-.328.319H33.68a.326.326,0,0,1-.32-.333Q33.374,13.005,33.407,12.364ZM33.356,15a.327.327,0,0,1,.322-.332h0a.326.326,0,0,1,.326.322c.007.424.02.856.042,1.295a.326.326,0,0,1-.31.343h-.015a.326.326,0,0,1-.326-.31C33.375,15.871,33.362,15.431,33.356,15Zm.268,3.944c-.055-.442-.1-.878-.137-1.311a.325.325,0,0,1,.3-.352.328.328,0,0,1,.354.3c.037.425.082.854.135,1.289a.325.325,0,0,1-.285.363.221.221,0,0,1-.041,0A.326.326,0,0,1,33.624,18.944ZM34.44,21.8a.323.323,0,0,1-.067.007.328.328,0,0,1-.319-.261c-.09-.435-.17-.868-.242-1.3a.327.327,0,0,1,.646-.107q.1.632.236,1.272A.327.327,0,0,1,34.44,21.8Zm2.124-14.67a.331.331,0,0,1,.381-.262.327.327,0,0,1,.262.381c-.072.389-.144.817-.214,1.279a.325.325,0,0,1-.322.278.278.278,0,0,1-.049,0,.327.327,0,0,1-.275-.371C36.418,7.962,36.492,7.526,36.564,7.131Zm-.391,2.608a.332.332,0,0,1,.362-.287.328.328,0,0,1,.287.362q-.073.618-.131,1.291a.327.327,0,0,1-.325.3h-.029a.327.327,0,0,1-.3-.354C36.079,10.6,36.124,10.157,36.173,9.739Zm-.223,2.625a.327.327,0,0,1,.653.035q-.034.631-.048,1.3a.326.326,0,0,1-.326.319h-.006a.326.326,0,0,1-.32-.333C35.911,13.23,35.927,12.792,35.95,12.364ZM35.9,15a.327.327,0,0,1,.322-.332h0a.326.326,0,0,1,.326.322c.007.424.02.856.042,1.295a.327.327,0,0,1-.31.343h-.017a.326.326,0,0,1-.325-.31C35.918,15.871,35.9,15.431,35.9,15Zm.268,3.944c-.055-.442-.1-.878-.137-1.311a.326.326,0,0,1,.65-.056c.037.425.082.854.135,1.289a.325.325,0,0,1-.285.363.219.219,0,0,1-.04,0A.326.326,0,0,1,36.167,18.944Zm.816,2.858a.332.332,0,0,1-.066.007.328.328,0,0,1-.319-.261c-.09-.435-.17-.868-.242-1.3A.327.327,0,1,1,37,20.143q.106.632.237,1.272A.328.328,0,0,1,36.983,21.8Z" transform="translate(-32.706 -4.997)" fill="#fff"/></g></g><g transform="translate(5 5.576)"><path d="M10.522,23.293a.3.3,0,0,1,.168-.326s-.042-.119-.1-.3A4.352,4.352,0,0,1,10.4,22c-.112-.49-.224-.98-.224-.98l-.007-.037a.314.314,0,0,1,.2-.314s-.47-1.965-.428-1.971l0-.037a.323.323,0,0,1,.231-.3l-.264-2,0-.037a.3.3,0,0,1,.231-.286c-.048,0-.138-2.006-.138-2.006V14a.307.307,0,0,1,.253-.272s-.025-.5-.051-1.005l.012-1.006,0-.037a.309.309,0,0,1,.271-.257s0-.5.011-1.007c.032-.5.062-1,.062-1l.006-.036a.307.307,0,0,1,.284-.241s.018-.5.082-1c.012-.1.023-.2.035-.291a9.136,9.136,0,0,0,.157,17.2l-.6-1.713Z" transform="translate(-5 -7.844)" fill="#fff"/></g></g><g transform="translate(-0.934 2.978)"><path d="M52.209,6.671,48.9,9.984,47.39,8.476,50.7,5.13a.426.426,0,0,1,.6,0l.9.937a.426.426,0,0,1,0,.6Z" transform="translate(913.555 925.801)" fill="#fff"/><path d="M23.257,0V.851h-.426a1.277,1.277,0,0,0-1.277,1.277H20.7A1.277,1.277,0,0,0,19.426.851H19V.426A.426.426,0,0,1,19.426,0Z" transform="translate(929.858 928.675)" fill="#fff"/><path d="M33.257.426V.851h-.426a1.277,1.277,0,0,0-1.277,1.277H30.7A1.277,1.277,0,0,0,29.426.851H29V0h3.832A.426.426,0,0,1,33.257.426Z" transform="translate(924.114 928.675)" fill="#fff"/><path d="M38.7,4.426V7.61L37,9.313V4.426A.426.426,0,0,1,37.426,4h.851A.426.426,0,0,1,38.7,4.426Z" transform="translate(919.521 926.378)" fill="#fff"/><path d="M38.7,33.69v9.924a.426.426,0,0,1-.426.426h-.851A.426.426,0,0,1,37,43.614V35.393Z" transform="translate(919.521 909.328)" fill="#fff"/><path d="M28.7,4.426v7.429l-1.7,1.7V4.426A.426.426,0,0,1,27.426,4h.851A.426.426,0,0,1,28.7,4.426Z" transform="translate(925.264 926.378)" fill="#fff"/><path d="M28.7,43.69v5.667a.426.426,0,0,1-.426.426h-.851A.426.426,0,0,1,27,49.357V45.393Z" transform="translate(925.264 903.586)" fill="#fff"/><path d="M18.7,4.426V16.1L17,17.8V4.426A.426.426,0,0,1,17.426,4h.851a.426.426,0,0,1,.426.426Z" transform="translate(931.006 926.378)" fill="#fff"/><path d="M18.795,53.69V55.1a.426.426,0,0,1-.426.426h-.851a.426.426,0,0,1-.358-.2Z" transform="translate(930.914 897.843)" fill="#fff"/><path d="M24.923,16.812,9.489,32.245a.426.426,0,0,1-.6,0L6.143,29.529a.426.426,0,0,1,0-.6L21.61,13.5a.426.426,0,0,1,.494-.081l.937.468,1.5,1.5.468.928a.426.426,0,0,1-.089.494Z" transform="translate(937.313 920.995)" fill="#fff"/></g></g></svg>